<svg xmlns="http://www.w3.org/2000/svg" viewBox="0 0 120 28" width="120" height="28">
  <path fill="#4c84ff" d="M16,5C9.925,5,5,9.925,5,16s4.925,11,11,11s11-4.925,11-11S22.075,5,16,5z M16,24
    c-4.418,0-8-3.582-8-8s3.582-8,8-8s8,3.582,8,8S20.418,24,16,24z"/>
  <path fill="#4c84ff" d="M16,12c-2.209,0-4,1.791-4,4s1.791,4,4,4s4-1.791,4-4S18.209,12,16,12z"/>
  <path fill="#333" d="M42,10h3v10.5c0,0.828,0.672,1.5,1.5,1.5s1.5-0.672,1.5-1.5V10h3v10.5c0,2.485-2.015,4.5-4.5,4.5
    s-4.5-2.015-4.5-4.5V10z"/>
  <path fill="#333" d="M55,10h3v5c0,0.552,0.448,1,1,1s1-0.448,1-1v-5h3v5c0,2.209-1.791,4-4,4s-4-1.791-4-4V10z"/>
  <path fill="#333" d="M67,10h3v15h-3V10z"/>
  <path fill="#333" d="M74,10h3v12h5v3h-8V10z"/>
  <path fill="#333" d="M86,10h3v5l4-5h4l-5,5l5,10h-4l-3-7l-1,1v6h-3V10z"/>
</svg> 